<?xml version="1.0" ?><svg viewBox="0 0 512 512" xmlns="http://www.w3.org/2000/svg"><g id="Cheat_day"><path d="M392,298.0886a85.4081,85.4081,0,0,0-17-1.7,82.9056,82.9056,0,0,0-26.9443,4.42,84.4548,84.4548,0,0,0-44.0315,33.83A85.3677,85.3677,0,0,0,290,381.3885a79.16,79.16,0,0,0,1.0189,12.75,82.7179,82.7179,0,0,0,16.0662,38.25A84.9748,84.9748,0,1,0,392,298.0886Zm20.1439,74.7148-43.6891,43.69a12.676,12.676,0,0,1-9.01,3.74,12.8178,12.8178,0,0,1-9.0084-3.74l-21.167-21.1649a12.7725,12.7725,0,0,1,18.021-18.105l12.1544,12.24,34.6807-34.68a12.7417,12.7417,0,0,1,18.0189,18.02Z"/><circle cx="261.6093" cy="224.1385" r="17"/><circle cx="176.6093" cy="224.1385" r="17"/><circle cx="219.1093" cy="190.1385" r="17"/><path d="M265.1807,394.1385H149.75A29.7469,29.7469,0,0,1,120,364.3034v-4.1649H266.625a58.6921,58.6921,0,0,1,1.4443-6.46,106.3654,106.3654,0,0,1,6.8005-19.04H120a25.5208,25.5208,0,0,1-25.5-25.5,25.0884,25.0884,0,0,1,7.4811-18.02A25.4307,25.4307,0,0,1,120,283.6385H323.5746a104.6973,104.6973,0,0,1,16.49-7.0552A107.902,107.902,0,0,1,375,270.8885a103.4567,103.4567,0,0,1,17,1.36V126.3034a42.4428,42.4428,0,0,0-42.5-42.4149h-4.25v25.5a38.25,38.25,0,1,1-76.5,0v-25.5h-93.5v25.5a38.25,38.25,0,0,1-76.5,0v-25.5H94.4149A42.37,42.37,0,0,0,52,126.3034V389.8885a42.4428,42.4428,0,0,0,42.4149,42.5h182.58a110.1782,110.1782,0,0,1-11.2206-34.5951C265.6061,396.6033,265.4359,395.4132,265.1807,394.1385Zm-46.0714-238a102.0257,102.0257,0,0,1,102,102h-204A101.9724,101.9724,0,0,1,219.1093,156.1385Z"/><path d="M306.9647,122.1115a12.7506,12.7506,0,0,0,12.75-12.75v-51a12.75,12.75,0,1,0-25.5,0v51A12.7507,12.7507,0,0,0,306.9647,122.1115Z"/><path d="M136.9647,122.1115a12.7506,12.7506,0,0,0,12.75-12.75v-51a12.75,12.75,0,0,0-25.5,0v51A12.7507,12.7507,0,0,0,136.9647,122.1115Z"/></g></svg>