<?xml version="1.0" ?><svg viewBox="0 0 512 512" xmlns="http://www.w3.org/2000/svg"><g id="Exercise_program"><path d="M404.7147,52H107.2853A12.7849,12.7849,0,0,0,94.5,64.7853V447.2147A12.7843,12.7843,0,0,0,107.2853,460H404.7147A12.7843,12.7843,0,0,0,417.5,447.2147V64.7853A12.7849,12.7849,0,0,0,404.7147,52ZM260.25,404.75h-102a12.75,12.75,0,0,1,0-25.5h102a12.75,12.75,0,0,1,0,25.5Zm0-51h-102a12.75,12.75,0,0,1,0-25.5h102a12.75,12.75,0,0,1,0,25.5Zm0-51h-102a12.75,12.75,0,0,1,0-25.5h102a12.75,12.75,0,0,1,0,25.5Zm42.5-93.5v-25.5h-93.5v25.5A12.7507,12.7507,0,0,1,196.5,222H171a12.7507,12.7507,0,0,1-12.75-12.75V132.6649A12.7148,12.7148,0,0,1,171,120h25.5a12.7148,12.7148,0,0,1,12.75,12.6649V158.25h93.5V132.6649A12.7148,12.7148,0,0,1,315.5,120H341a12.7148,12.7148,0,0,1,12.75,12.6649V209.25A12.7507,12.7507,0,0,1,341,222H315.5A12.7507,12.7507,0,0,1,302.75,209.25Zm51,195.5h-34a12.75,12.75,0,0,1,0-25.5h34a12.75,12.75,0,0,1,0,25.5Zm0-51h-34a12.75,12.75,0,0,1,0-25.5h34a12.75,12.75,0,0,1,0,25.5Zm0-51h-34a12.75,12.75,0,0,1,0-25.5h34a12.75,12.75,0,0,1,0,25.5Z"/></g></svg>