<?xml version="1.0" ?><svg viewBox="0 0 512 512" xmlns="http://www.w3.org/2000/svg"><g id="Fitness_member"><path d="M417.5,111.5H94.5A42.5154,42.5154,0,0,0,52,154V358.0851A42.4428,42.4428,0,0,0,94.5,400.5h323A42.4428,42.4428,0,0,0,460,358.0851V154A42.5154,42.5154,0,0,0,417.5,111.5ZM264.5,205a12.7141,12.7141,0,0,1,12.75-12.6649h17A12.7154,12.7154,0,0,1,307,205v12.8351h59.5V205a12.7141,12.7141,0,0,1,12.75-12.6649h17A12.7154,12.7154,0,0,1,409,205v51.0851a12.7334,12.7334,0,0,1-12.75,12.75h-17a12.7321,12.7321,0,0,1-12.75-12.75v-12.75H307v12.75a12.7334,12.7334,0,0,1-12.75,12.75h-17a12.7321,12.7321,0,0,1-12.75-12.75ZM103,328.25a61.8893,61.8893,0,0,1,39.4391-57.5452c-16.7448-9.4338-27.37-28.729-22.95-50.1491a46.435,46.435,0,1,1,67.9149,50.1491A61.7671,61.7671,0,0,1,226.8456,328.25Zm306,0H264.5a12.75,12.75,0,0,1,0-25.5H409a12.75,12.75,0,0,1,0,25.5Z"/></g></svg>