<?xml version="1.0" ?><svg viewBox="0 0 512 512" xmlns="http://www.w3.org/2000/svg"><g id="Heart_rate"><path d="M338.1124,253.9914,322.3741,288.975a12.7547,12.7547,0,0,1-23.2588,0l-26.6206-59.1638-7.4956,16.6638a12.7581,12.7581,0,0,1-11.6294,7.5164H95.2066a98.8434,98.8434,0,0,0,11.121,13.4218l140.638,140.64a12.7745,12.7745,0,0,0,18.0667,0l140.6422-140.64a98.6716,98.6716,0,0,0,11.1189-13.4218Z"/><path d="M245.127,228.4914l15.7383-34.9836a12.7547,12.7547,0,0,1,23.2588,0l26.6206,59.1638,7.4956-16.6638a12.7581,12.7581,0,0,1,11.6294-7.5164h99.6384a98.3254,98.3254,0,0,0-25.1513-101.56c-39.0116-37.6108-101.8589-34.7195-140.1774,3.5974l-8.18,8.1794-8.17-8.1706c-38.3164-38.3231-101.17-41.2175-140.1857-3.6046A98.3229,98.3229,0,0,0,82.4919,228.4914Z"/></g></svg>