<svg width="512" height="512" viewBox="0 0 512 512" fill="none" xmlns="http://www.w3.org/2000/svg">
<path fill-rule="evenodd" clip-rule="evenodd" d="M326.574 35.8221C327.308 49.4663 331.543 68.7227 344.5 85.4229C367 114.423 356.5 162.5 320 174C303.316 179.257 252 193.83 229 189.423C172 178.5 94.5 195.5 73 265C70.1471 274.222 68.1214 284.18 66.7467 294.468C65.4989 303.807 64.7876 313.418 64.4808 323C62.8273 357.405 69.1475 399.591 111.336 433.279C117.809 438.448 118.867 447.886 113.698 454.359C108.528 460.833 99.0906 461.891 92.617 456.722C83.7446 449.637 76.3935 442.085 70.3117 434.26C66.5808 449.878 62 471.439 62 480.923C62 491.105 87.8055 490.459 146.298 488.993C154.763 488.781 163.912 488.552 173.766 488.336C183.852 488.115 194.678 487.907 206.264 487.746C212.853 487.655 219.687 487.578 226.772 487.522C221.514 480.688 217.05 473.762 213.292 466.751C212.878 465.978 205.364 453.634 203.883 450.746C200.138 443.439 197.667 432.688 195.383 425.428C190.712 400.428 197.03 387.159 196.089 364.625C195.744 356.348 202.174 349.359 210.451 349.013C218.728 348.668 225.717 355.097 226.063 363.375C226.474 373.233 226.421 382.747 225.988 391.897C225.996 392.097 226 392.298 226 392.5C226 412.414 229.028 431.734 238.773 450.746C244.906 462.713 253.928 474.998 267.188 487.429C271.109 487.431 274.964 487.434 278.754 487.437H278.775H278.796H278.797C328.047 487.477 366.301 487.507 393.996 486.129C396.374 469.693 397.879 450.615 398.585 431.303C399.803 397.958 398.57 366.186 396.158 349.668C394.96 341.471 400.634 333.855 408.831 332.658C417.029 331.461 424.645 337.135 425.843 345.332C428.63 364.415 429.814 398.226 428.565 432.398C427.946 449.359 426.71 466.982 424.644 483.343C441.323 480.714 449.5 472.928 449.5 448.928V37.9229C449.5 20.669 441.128 21.4476 430.585 22.4281C427.991 22.6694 425.265 22.9229 422.5 22.9229H339.913C332.484 22.9229 326.175 28.4037 326.574 35.8221ZM268.626 207.137C260.415 206.042 252.871 211.811 251.776 220.023C250.681 228.235 256.45 235.779 264.662 236.874C335.914 246.374 350.181 259.531 371.383 275.433C378.01 280.404 387.412 279.06 392.383 272.433C397.353 265.806 396.01 256.404 389.383 251.433C388.522 250.787 387.667 250.143 386.813 249.498C386.691 249.406 386.568 249.314 386.446 249.222C364.816 232.905 343.976 217.184 268.626 207.137Z" fill="black"/>
</svg>
