<svg width="512" height="512" viewBox="0 0 512 512" fill="none" xmlns="http://www.w3.org/2000/svg">
<path fill-rule="evenodd" clip-rule="evenodd" d="M304.5 61V71C304.5 71 334.542 68.7103 351.5 76C366.937 82.6359 385 103 385 103C385 103 416.785 101.585 435 109C445.908 113.44 457.951 123.49 466.145 131.151C472.699 137.278 476 145.973 476 154.945V297.7C476 309.082 464.45 316.824 453.921 312.5L427.19 301.521L421.699 299.266L420 298.568L420.005 298.61L420.016 298.699C420.025 298.779 420.038 298.894 420.055 299.044C414.671 298.621 409.24 301.128 406.167 306.018C401.034 314.182 387.086 327.621 368.85 329.49C360.64 330.332 354.653 337.647 355.45 345.86C356.433 355.983 353.677 376.604 340.665 388.975C334.661 394.683 334.421 404.178 340.129 410.182C345.837 416.185 355.331 416.426 361.335 410.718C378.152 394.731 384.059 372.89 385.331 356.685C400.311 352.269 412.366 343.666 420.897 335.127C420.347 342.708 419.185 350.289 417 356.568C409.809 377.236 385 399.5 385 399.5L378.241 453.97C377.247 461.983 370.437 468 362.363 468H269V424.5C269 416.216 262.284 409.5 254 409.5C245.716 409.5 239 416.216 239 424.5V468H144.24C136.122 468 129.29 461.92 128.348 453.856L122 399.5C122 399.5 100.391 376.604 94 356.568C92.117 350.665 91.0389 343.658 90.4665 336.591C98.8879 344.636 110.411 352.522 124.534 356.685C125.807 372.89 131.715 394.731 148.531 410.718C154.535 416.426 164.029 416.185 169.737 410.182C175.445 404.178 175.205 394.683 169.201 388.975C156.189 376.604 153.433 355.983 154.416 345.86C155.213 337.647 149.226 330.332 141.017 329.49C122.78 327.621 108.832 314.182 103.699 306.018C100.844 301.475 95.9534 298.989 90.9564 298.998C90.9842 298.716 91 298.568 91 298.568L89.8718 299.04L81.1452 302.689L58.1729 312.296C47.6314 316.704 36 308.961 36 297.534L36 152.485C36 145.014 38.2834 137.693 43.1123 131.992C51.4172 122.187 65.83 107.326 80 103C95.6873 98.211 122 103 122 103C122 103 144.587 76.9242 164.5 71C180.783 66.156 208 71 208 71V61C208 52.1634 215.163 45 224 45H288.5C297.337 45 304.5 52.1634 304.5 61ZM236.372 162.995C228.637 160.028 219.962 163.893 216.995 171.628C211.352 186.339 200.045 198.812 186.663 208.675C173.311 218.515 158.862 225.03 148.624 228.152C140.7 230.569 136.236 238.952 138.652 246.876C141.069 254.8 149.452 259.264 157.376 256.848C170.638 252.803 188.189 244.818 204.462 232.825C220.705 220.854 236.648 204.16 245.005 182.372C247.972 174.637 244.107 165.962 236.372 162.995ZM239 242.5V293.568C239 301.852 245.716 308.568 254 308.568C262.284 308.568 269 301.852 269 293.568V242.5C269 234.216 262.284 227.5 254 227.5C245.716 227.5 239 234.216 239 242.5ZM282.628 162.995C290.363 160.028 299.038 163.893 302.005 171.628C307.648 186.339 318.955 198.812 332.337 208.675C345.689 218.515 360.138 225.03 370.376 228.152C378.3 230.569 382.764 238.952 380.348 246.876C377.931 254.8 369.548 259.264 361.624 256.848C348.362 252.803 330.811 244.818 314.538 232.825C298.295 220.854 282.352 204.16 273.995 182.372C271.028 174.637 274.893 165.962 282.628 162.995ZM239 330.068V391.5C239 399.784 245.716 406.5 254 406.5C262.284 406.5 269 399.784 269 391.5V330.068C269 321.784 262.284 315.068 254 315.068C245.716 315.068 239 321.784 239 330.068Z" fill="black"/>
</svg>
