<?xml version="1.0" ?><svg viewBox="0 0 512 512" xmlns="http://www.w3.org/2000/svg"><g id="Strength_training"><path d="M434.5,230.5H421.75V179.4792A16.98,16.98,0,0,0,404.7708,162.5H387.7272A16.9769,16.9769,0,0,0,370.75,179.4792V332.5228A16.9765,16.9765,0,0,0,387.7272,349.5h17.0436A16.98,16.98,0,0,0,421.75,332.5228V281.5H434.5a25.5,25.5,0,0,0,0-51Z"/><path d="M328.2147,145.5H311.2832A17.0353,17.0353,0,0,0,294.25,162.5353V230.5h-76.5V162.5353A17.0371,17.0371,0,0,0,200.7147,145.5H183.7832A17.0353,17.0353,0,0,0,166.75,162.5353V349.4668A17.0336,17.0336,0,0,0,183.7832,366.5h16.9315A17.0353,17.0353,0,0,0,217.75,349.4668V281.5h76.5v67.9668A17.0336,17.0336,0,0,0,311.2832,366.5h16.9315A17.0353,17.0353,0,0,0,345.25,349.4668V162.5353A17.0371,17.0371,0,0,0,328.2147,145.5Z"/><path d="M124.2708,162.5H107.2272A16.9769,16.9769,0,0,0,90.25,179.4792V230.5H77.5a25.5,25.5,0,0,0,0,51H90.25v51.0228A16.9765,16.9765,0,0,0,107.2272,349.5h17.0436A16.98,16.98,0,0,0,141.25,332.5228V179.4792A16.98,16.98,0,0,0,124.2708,162.5Z"/></g></svg>