<?xml version="1.0" ?><svg viewBox="0 0 512 512" xmlns="http://www.w3.org/2000/svg"><g id="Weight_scale"><path d="M417.5187,120H378.754a126.84,126.84,0,0,1,4.7439,34c0,1.434-.1681,2.8264-.2158,4.25h25.7241a12.7506,12.7506,0,0,1,12.75,12.75V409a12.7506,12.7506,0,0,1-12.75,12.75h-127.5a12.7507,12.7507,0,0,1-12.75-12.75V280.8525c-4.1981.4192-8.4522.6475-12.7583.6475-4.3,0-8.55-.2283-12.7417-.6454V409a12.7506,12.7506,0,0,1-12.75,12.75h-127.5A12.7507,12.7507,0,0,1,90.2562,409V171a12.7507,12.7507,0,0,1,12.75-12.75h25.7075c-.0477-1.4236-.2158-2.816-.2158-4.25a126.844,126.844,0,0,1,4.7439-34H94.4834A42.4826,42.4826,0,0,0,52,162.4813V417.5176A42.4835,42.4835,0,0,0,94.4834,460H417.5187A42.4818,42.4818,0,0,0,460,417.5176V162.4813A42.4809,42.4809,0,0,0,417.5187,120Z"/><path d="M294.2562,396.25h102V183.75H379.85a127.8841,127.8841,0,0,1-85.5935,91.8668Z"/><path d="M132.1461,183.75h-16.39v212.5h102V275.623A127.8867,127.8867,0,0,1,132.1461,183.75Z"/><path d="M256,256A102,102,0,1,0,154,154,102,102,0,0,0,256,256ZM243.2479,137.0975V103a12.75,12.75,0,0,1,25.5,0v34.0934a21.2509,21.2509,0,1,1-25.5.0041Z"/></g></svg>